<?xml version="1.0" encoding="iso-8859-1"?>
<!-- Uploaded to: SVG Repo, www.svgrepo.com, Generator: SVG Repo Mixer Tools -->
<svg fill="#000000" height="800px" width="800px" version="1.1" id="Layer_1" xmlns="http://www.w3.org/2000/svg" xmlns:xlink="http://www.w3.org/1999/xlink" 
	 viewBox="0 0 512 512" xml:space="preserve">
<g>
	<g>
		<path d="M461.913,389.565h-94.609v-33.391h50.087c9.217,0,16.696-7.479,16.696-16.696V239.304c0-9.217-7.479-16.696-16.696-16.696
			h-50.087v-50.087c0-64.441-52.424-116.87-116.87-116.87H83.478C37.446,55.652,0,93.098,0,139.13v166.957
			c0,64.445,52.424,116.87,116.87,116.87c189.875,0,166.025,0,345.043,0c9.206,0,16.696,7.49,16.696,16.696
			c0,9.217,7.479,16.696,16.696,16.696c9.217,0,16.696-7.479,16.696-16.696C512,412.033,489.532,389.565,461.913,389.565z
			 M367.304,256h33.391v66.783h-33.391V256z M183.652,356.174c-64.445,0-116.87-52.424-116.87-116.87s52.424-116.87,116.87-116.87
			s116.87,52.424,116.87,116.87S248.097,356.174,183.652,356.174z"/>
	</g>
</g>
<g>
	<g>
		<path d="M183.652,155.826c-46.032,0-83.478,37.446-83.478,83.478c0,46.032,37.446,83.478,83.478,83.478
			c46.032,0,83.478-37.446,83.478-83.478C267.13,193.272,229.684,155.826,183.652,155.826z"/>
	</g>
</g>
</svg>