<?xml version="1.0"?>
<svg width="24" height="24" xmlns="http://www.w3.org/2000/svg" xmlns:svg="http://www.w3.org/2000/svg" xmlns:xlink="http://www.w3.org/1999/xlink">
 <!-- Created with SVG-edit - https://github.com/SVG-Edit/svgedit-->
 <defs>
  <symbol height="800px" id="svg_1" version="1.1" viewBox="0 0 16 16" width="800px" xmlns="http://www.w3.org/2000/svg" xmlns:xlink="http://www.w3.org/1999/xlink">
   <path d="m15,2l0,2l-9,0l0,-2l9,0zm1,-1l-11,0l0,4l11,0l0,-4z" fill="#444"/>
   <path d="m0,1l4,0l0,4l-4,0l0,-4z" fill="#444"/>
   <path d="m15,7l0,2l-9,0l0,-2l9,0zm1,-1l-11,0l0,4l11,0l0,-4z" fill="#444"/>
   <path d="m0,6l4,0l0,4l-4,0l0,-4z" fill="#444"/>
   <path d="m15,12l0,2l-9,0l0,-2l9,0zm1,-1l-11,0l0,4l11,0l0,-4z" fill="#444"/>
   <path d="m0,11l4,0l0,4l-4,0l0,-4z" fill="#444"/>
  </symbol>
  <symbol height="800px" id="svg_3" viewBox="0 0 24 24" width="800px" xmlns="http://www.w3.org/2000/svg">
   <path d="m13.8,13.8l4.2,4.2l-4.2,-4.2zm-3.3,1.2c2.49,0 4.5,-2.01 4.5,-4.5c0,-2.49 -2.01,-4.5 -4.5,-4.5c-2.49,0 -4.5,2.01 -4.5,4.5c0,2.49 2.01,4.5 4.5,4.5z" fill="none" stroke="#000000" stroke-width="2"/>
  </symbol>
 </defs>
 <g class="layer">
  <title>Layer 1</title>
  <use id="svg_2" transform="matrix(0.0213513 0 0 0.0268944 15.7975 89.6704)" x="-624.69" xlink:href="#svg_1" y="-3287.98"/>
  <use id="svg_4" transform="matrix(0.0294467 0 0 0.036222 20.0834 15.3493)" x="-493.39" xlink:href="#svg_3" y="-469.46"/>
 </g>
</svg>