<?xml version="1.0"?>
<svg width="24" height="24" xmlns="http://www.w3.org/2000/svg" xmlns:svg="http://www.w3.org/2000/svg">
 <g class="layer">
  <title>Layer 1</title>
  <path d="m7,7.6c0,-0.33 0.26,-0.6 0.57,-0.6l8.58,0c0.31,0 0.57,0.27 0.57,0.6l0,1.8c0,0.33 -0.26,0.6 -0.57,0.6l-0.57,0c-0.31,0 -0.57,-0.27 -0.57,-0.6l0,-0.6l-2.29,0l0,7.82l1.14,0c0.31,0 0.57,0.27 0.57,0.6l0,0.6c0,0.33 -0.26,0.6 -0.57,0.6l-4.01,0c-0.31,0 -0.57,-0.27 -0.57,-0.6l0,-0.6c0,-0.33 0.26,-0.6 0.57,-0.6l1.14,0l0,-7.82l-2.29,0l0,0.6c0,0.33 -0.26,0.6 -0.57,0.6l-0.57,0c-0.31,0 -0.57,-0.27 -0.57,-0.6l0,-1.8z" fill="#000000" id="svg_1" stroke-width="0"/>
 </g>
</svg>