<svg width="800" height="800" viewBox="0 0 800 800" fill="none" xmlns="http://www.w3.org/2000/svg">
<g clip-path="url(#clip0_388_2872)">
<path d="M250 400C279.667 400 308.668 391.203 333.336 374.72C358.003 358.238 377.229 334.811 388.582 307.403C399.935 279.994 402.906 249.834 397.118 220.737C391.33 191.639 377.044 164.912 356.066 143.934C335.088 122.956 308.361 108.67 279.264 102.882C250.166 97.0945 220.006 100.065 192.598 111.418C165.189 122.771 141.762 141.997 125.28 166.665C108.797 191.332 100 220.333 100 250C100 289.783 115.804 327.936 143.934 356.066C172.064 384.197 210.218 400 250 400Z" fill="#412c1c"/>
<path d="M583.333 400C606.408 400 628.964 393.158 648.15 380.338C667.336 367.519 682.289 349.298 691.119 327.98C699.949 306.662 702.26 283.204 697.758 260.573C693.257 237.942 682.145 217.154 665.829 200.837C649.513 184.521 628.725 173.41 606.094 168.908C583.463 164.407 560.005 166.717 538.687 175.547C517.369 184.377 499.148 199.331 486.329 218.517C473.509 237.702 466.667 260.259 466.667 283.333C466.667 314.275 478.958 343.95 500.838 365.829C522.717 387.708 552.391 400 583.333 400Z" fill="#412c1c"/>
<path d="M766.667 490L751.667 480C700.837 449.436 642.645 433.289 583.333 433.289C524.022 433.289 465.83 449.436 415 480L401.667 490C358.294 474.706 312.657 466.818 266.667 466.667C189.042 466.122 113.02 488.754 48.3334 531.667L33.3334 541.667V666.667C33.3334 675.507 36.8453 683.986 43.0965 690.237C49.3477 696.488 57.8262 700 66.6667 700H466.667C475.507 700 483.986 696.488 490.237 690.237C496.488 683.986 500 675.507 500 666.667V633.333H733.333C742.174 633.333 750.652 629.821 756.904 623.57C763.155 617.319 766.667 608.84 766.667 600V490Z" fill="#412c1c"/>
</g>
<defs>
<clipPath id="clip0_388_2872">
<rect width="800" height="800" fill="white"/>
</clipPath>
</defs>
</svg>
